<?xml version="1.0" standalone="no"?>

<svg version="1.0" xmlns="http://www.w3.org/2000/svg"
 width="78.000000pt" height="78.000000pt" viewBox="0 0 78.000000 78.000000"
 preserveAspectRatio="xMidYMid meet">

<g transform="translate(0.000000,78.000000) scale(0.100000,-0.100000)"
fill="#000000" stroke="none">
<path d="M375 640 c-14 -16 -26 -19 -51 -14 -36 7 -45 -4 -59 -70 -6 -27 -7
-27 -25 -11 -24 22 -37 13 -49 -33 -12 -45 -1 -104 29 -144 l21 -28 -29 0
c-33 0 -57 22 -48 45 3 9 0 15 -9 15 -11 0 -12 -6 -4 -30 9 -23 7 -34 -8 -54
-10 -14 -27 -26 -38 -27 -16 -1 -17 -2 -3 -6 9 -2 19 -16 21 -31 4 -24 4 -24
6 6 3 71 47 83 222 61 107 -13 129 -22 129 -53 0 -40 -21 -48 -107 -43 -63 5
-69 4 -28 -3 87 -15 114 -12 138 14 33 35 138 106 157 106 26 0 43 -26 36 -55
-4 -17 -35 -44 -99 -87 l-92 -63 -200 -5 -200 -6 199 -2 198 -2 82 56 c44 31
91 66 104 77 26 24 29 59 7 77 -11 9 -14 22 -10 42 5 23 3 28 -12 27 -10 0
-13 -3 -7 -5 15 -6 6 -44 -11 -44 -6 0 -40 -19 -74 -42 -51 -34 -64 -39 -72
-27 -6 11 1 18 29 30 89 39 139 149 101 222 -17 32 -17 32 -44 7 l-25 -23 0
27 c0 14 -6 42 -14 61 -14 33 -16 34 -46 24 -27 -10 -34 -8 -54 10 -28 26 -38
26 -61 1z m57 -7 c31 -36 48 -83 48 -134 l0 -52 -34 39 -34 39 -31 -29 c-17
-17 -31 -35 -31 -40 0 -6 10 1 21 17 27 36 42 34 78 -10 l31 -37 60 59 c33 32
63 55 67 51 5 -4 8 -33 8 -64 0 -70 -29 -116 -89 -143 -38 -17 -48 -17 -150
-3 -115 15 -135 24 -163 77 -16 31 -20 91 -8 127 7 21 11 19 71 -41 35 -34 66
-61 68 -58 3 3 1 21 -5 40 -14 44 2 106 37 149 30 35 35 36 56 13z m-99 -19
c14 -5 14 -11 0 -50 -8 -25 -13 -58 -11 -75 l5 -29 -29 27 c-25 24 -28 33 -23
63 12 62 25 77 58 64z m195 -19 c20 -44 15 -89 -13 -115 l-25 -23 0 46 c0 25
-5 58 -10 72 -6 15 -8 31 -4 36 11 18 41 9 52 -16z"/>
</g>
</svg>
